<?xml version="1.0" standalone="no"?>
<!DOCTYPE svg PUBLIC "-//W3C//DTD SVG 20010904//EN"
 "http://www.w3.org/TR/2001/REC-SVG-20010904/DTD/svg10.dtd">
<svg version="1.0" xmlns="http://www.w3.org/2000/svg"
 width="300.000000pt" height="264.000000pt" viewBox="0 0 300.000000 264.000000"
 preserveAspectRatio="xMidYMid meet">
<metadata>
Created by potrace 1.10, written by Peter Selinger 2001-2011
</metadata>
<g transform="translate(0.000000,264.000000) scale(0.100000,-0.100000)"
fill="#000000" stroke="none">
<path d="M2632 2510 c-37 -9 -72 -36 -72 -56 0 -7 -22 -28 -50 -46 -58 -38
-52 -6 -54 -298 -2 -212 -10 -248 -78 -351 -75 -115 -140 -223 -175 -294 -30
-60 -54 -97 -118 -184 -58 -80 -281 -281 -311 -281 -4 0 -15 -6 -23 -13 -26
-22 -180 -84 -266 -107 -58 -15 -122 -23 -230 -27 -183 -7 -271 7 -470 72 -76
25 -178 52 -225 61 -47 8 -114 27 -149 42 -93 38 -168 33 -189 -13 -6 -14 -17
-25 -24 -25 -18 0 -61 -85 -60 -119 1 -42 57 -193 98 -267 45 -81 154 -198
236 -253 257 -173 667 -256 1021 -206 135 19 352 76 483 127 243 93 490 287
667 523 79 105 179 301 202 398 24 99 30 223 15 303 -15 81 -65 196 -115 264
-45 61 -72 137 -80 221 -8 80 8 181 34 218 12 16 21 44 21 63 0 18 7 51 15 73
8 22 14 63 15 92 0 44 -4 55 -26 72 -28 22 -39 24 -92 11z m77 -34 c9 -15 10
-36 6 -57 -7 -30 -6 -32 8 -21 13 11 15 10 10 -8 -3 -13 -11 -19 -19 -16 -16
6 -18 -6 -4 -20 7 -7 4 -26 -11 -58 -17 -40 -24 -47 -42 -43 -68 16 -87 18
-87 9 0 -5 25 -13 55 -17 37 -4 55 -11 55 -20 0 -8 -4 -17 -10 -20 -30 -18
-46 -206 -24 -282 8 -30 9 -41 1 -36 -6 4 -1 -10 11 -31 12 -20 22 -42 22 -48
0 -6 16 -31 36 -54 20 -25 32 -49 28 -55 -4 -8 -3 -9 4 -5 7 4 19 -7 29 -31
10 -21 23 -44 30 -51 7 -7 10 -18 7 -25 -2 -7 2 -31 10 -54 10 -30 14 -77 12
-170 -3 -120 -15 -184 -53 -273 -3 -8 -7 -21 -9 -28 -1 -8 -11 -23 -21 -34
-10 -11 -16 -21 -14 -22 9 -3 -38 -96 -48 -96 -6 0 -11 -7 -11 -15 0 -8 -4
-15 -10 -15 -5 0 -10 -5 -10 -11 0 -6 -6 -16 -12 -23 -7 -7 -24 -27 -38 -45
-14 -18 -35 -45 -47 -59 -12 -15 -37 -46 -55 -69 -37 -48 -194 -183 -212 -183
-6 0 -18 -9 -26 -20 -8 -11 -20 -20 -27 -20 -7 0 -13 -5 -13 -11 0 -5 -16 -17
-35 -25 -19 -8 -35 -18 -35 -23 0 -4 -18 -14 -40 -21 -22 -7 -40 -16 -40 -20
0 -9 -69 -38 -108 -46 -18 -4 -35 -11 -38 -15 -3 -5 -14 -9 -26 -9 -11 0 -31
-9 -44 -19 -15 -12 -35 -18 -50 -15 -15 3 -23 1 -20 -5 3 -5 -3 -7 -15 -4 -12
3 -24 2 -28 -3 -9 -13 -175 -52 -251 -60 -36 -3 -83 -10 -105 -15 -55 -12
-307 -3 -380 15 -135 32 -201 49 -219 58 -11 6 -29 11 -40 13 -50 7 -169 55
-183 75 -8 11 -19 18 -24 15 -11 -7 -139 83 -139 98 0 5 -3 7 -7 3 -11 -10
-72 55 -66 71 3 9 -2 16 -14 19 -26 7 -58 60 -41 67 9 4 8 6 -3 6 -20 1 -61
74 -53 95 4 10 1 16 -9 16 -18 0 -29 24 -20 47 5 12 3 14 -7 8 -8 -5 -11 -3
-8 6 3 8 1 22 -4 32 -5 10 -10 31 -10 47 -1 16 -5 27 -9 24 -24 -15 20 63 60
107 44 47 50 51 95 51 32 0 54 -6 68 -19 11 -10 25 -18 31 -18 11 -1 69 -12
177 -36 25 -5 58 -12 75 -15 16 -3 36 -11 44 -17 8 -7 16 -11 18 -9 10 7 33 0
47 -14 9 -8 20 -12 26 -9 5 3 10 2 10 -3 0 -5 12 -7 26 -4 20 4 25 2 19 -8 -5
-8 -4 -11 2 -7 5 3 27 1 49 -4 21 -5 44 -11 49 -12 6 -1 15 -6 22 -10 6 -4 40
-10 74 -13 35 -3 67 -8 73 -11 5 -4 6 -1 1 7 -6 9 -2 10 16 4 27 -10 234 -8
250 2 6 3 23 7 37 9 25 2 160 46 209 68 11 5 26 6 32 3 5 -4 15 3 21 14 6 12
18 19 25 16 7 -2 19 2 25 10 7 8 21 14 32 14 10 0 21 7 24 15 4 8 12 15 20 15
8 0 14 5 14 10 0 6 7 10 16 10 8 0 12 5 8 11 -4 7 2 9 17 7 18 -2 23 1 21 14
-2 11 3 18 13 18 8 0 15 5 15 11 0 5 4 8 8 5 5 -3 16 6 26 20 11 13 24 24 31
24 7 0 12 8 11 18 0 9 5 16 12 15 6 -2 12 1 12 5 0 5 11 21 24 37 22 25 25 26
30 9 3 -11 4 -7 2 8 -2 16 3 29 10 32 7 3 26 24 41 48 15 24 31 45 36 46 9 5
41 74 38 85 0 4 6 10 14 13 8 4 15 15 15 25 0 10 4 19 8 19 4 0 13 12 19 28 7
15 17 34 22 42 5 8 26 43 46 77 21 34 46 70 56 79 10 9 19 23 19 30 0 7 13 33
29 57 17 24 28 52 27 63 -2 10 1 22 7 26 6 4 12 76 14 185 2 98 4 185 4 193 1
8 -2 26 -5 40 -3 14 -4 19 0 13 11 -25 25 -13 20 18 -4 25 -2 28 10 18 11 -9
15 -7 21 7 8 23 30 50 68 87 52 51 95 60 114 23z"/>
<path d="M2633 2323 c-7 -3 -13 -13 -13 -23 0 -13 5 -17 20 -13 11 3 22 9 25
13 7 11 -18 28 -32 23z"/>
<path d="M2375 1376 c-24 -27 -57 -98 -44 -94 7 2 24 26 37 52 23 47 26 65 7
42z"/>
<path d="M366 814 c-10 -26 5 -39 21 -19 7 11 13 22 13 27 0 15 -28 8 -34 -8z"/>
<path d="M2345 803 c-55 -25 -255 -157 -255 -169 0 -6 35 13 52 28 21 21 97
68 108 68 5 0 10 3 10 8 0 8 36 28 120 67 30 13 48 25 40 25 -8 0 -42 -12 -75
-27z"/>
</g>
</svg>
